<?xml version="1.0" encoding="UTF-8" standalone="no"?>
<!-- Created with Inkscape (http://www.inkscape.org/) -->
<svg id="svg2" xmlns:rdf="http://www.w3.org/1999/02/22-rdf-syntax-ns#" xmlns="http://www.w3.org/2000/svg" xml:space="preserve" height="480.9121" viewBox="0 0 1230.0559 480.91208" width="1230.056" version="1.1" xmlns:cc="http://creativecommons.org/ns#" xmlns:dc="http://purl.org/dc/elements/1.1/"><metadata id="metadata8"><rdf:RDF><cc:Work rdf:about=""><dc:format>image/svg+xml</dc:format><dc:type rdf:resource="http://purl.org/dc/dcmitype/StillImage"/><dc:title/></cc:Work></rdf:RDF></metadata><g id="g10" transform="matrix(1.25 0 0 -1.25 302.7896 697.5899)"><path id="path12" d="m741.813 173.3422h-984.0447v384.7297h984.0447v-384.7297z" fill-rule="evenodd" fill="#030304"/><path id="path80" d="m57.38428 331.0527c-15.08936 11.89258-38.95459-2.60449-44.3584-6.18164-9.06397-5.99804-12.80859-5.333-7.49463 0.40528 21.25586 22.94238 33.55225 55.82422 33.55225 88.26904 0 69.22803-56.1211 128.2808-128.0679 128.2808-67.61474 0-125.5952-54.93506-125.5952-130.7261 0-3.7002-1.17041-34.6001 18.5127-66.81885 24.62402-39.71973 69.31347-60.96191 105.9961-60.96191 3.07178 0 9.31982-0.004 13.16406 0.46484 1.49219 0.18359 2.78076-1.20996 3.36914-2.53223 6.56201-14.76757 22.24903-36.06152 45.09522-41.85058 79.46679-20.12793 104.3096 77.08496 85.82666 91.65136m-128.7358 57.79004c-0.37207-0.87988-1.24121-1.73242-2.36914-1.17578-2.91944 1.44043-8.43848 3.8086-17.41895 3.8086-8.34961 0-11.12012-7.21192-12.1167-4.5293-0.99853 2.68262-4.64648 10.19043-4.64648 28.68017 0 27.07276 9.06494 49.43995 19.90869 49.43995 10.84326 0 19.90771-29.2583 19.90771-49.43995 0-22.74365-2.64697-25.31982-3.26513-26.78369z" fill="#c2302e"/><path id="path82" d="m720.1104 378.791c-5.32129 9.21191-17.99609 8.5625-23.55078 6.16015-5.55469-2.39941-6.41016 1.32422-6.41016 2.77246v41.2627h18.97168c6.08789 0 11.51758 5.89062 11.51758 14.67431v24.15479c0 8.50879-5.5625 13.86035-12.21777 13.86035-1.88965 0-14.46485 0.1377-18.68164 0.1377-3.99024 0 0.31152 17.15136-2.1709 23.1123-3.84766 9.23975-8.89258 14.2168-19.45996 14.2168-11.77149 0-38.48535-20.20508-47.3877-26.34961-7.31054-5.04688-27.50586-22.17529-35.93359-30.3169-0.35742-0.34716-0.97559-1.09228-1.81445-0.77636-2.80664 1.05908-10.79981 2.64111-16.54102 2.41064-15.89941-0.6416-27.74219-14.22265-28.7793-14.22265s0.10743 3.67871-6.0664 7.48339c-13.90625 8.56787-61.50391-11.56884-69.4043-16.20752-1.0791-0.63427-2.16406-1.34326-3.22168-2.1206-0.6875-0.57959-1.39648-0.5957-1.83691 0.25586-13.39356 26.00488-40.03418 44.57324-69.2627 44.57324-34.70898 0-63.13867-23.15918-74.26562-55.44678-0.1875-0.5459-1.00879-0.48828-1.24805 0.0894-8.05322 19.45019-23.9165 34.6206-51.37744 34.6206-12.27881 0-25.88428-6.08935-27.29102-6.57373-1.73047-0.59472-2.97754-0.22802-2.97754 2.05811 0 3.83838-0.41845 22.09521-0.41845 36.09619 0 7.5791-3.01416 12.37305-9.92969 16.17627-12.61377 6.93701-56.37695-3.22998-75.38428-15.98389-15.79101-10.59228-25.25683-18.93115-22.70263-30.90234 2.78955-13.0708 20.79199-8.26709 20.79199-18.875 0-7.37647 1.70898-32.12598 1.70898-51.28711 0-23.68945-1.6206-47.26855-2.33642-58.32812-0.33985-5.29786-2.75977-15.96973 2.56738-21.35352 8.97754-9.07617 23.92578-4.30664 25.59375-4.2627 1.6665 0.0459 7.7539 0.11231 11.18359-2.23339 4.08106-2.78614 25.87451-14.36719 45.81983-14.36719 19.32812 0 67.82715 13.62988 86.41601 63.23047 0.59766 1.6914 1.56836 1.60058 2.46778-0.0937 13.25878-25.0791 36.97949-43.28809 71.38183-43.28809 27.36133 0 47.5459 9.94629 60.70508 26.01465 1.62793 1.64941 3.38867 0.76269 2.08496-1.05664-2.12109-2.95703-2.75976-7.54297-2.75976-13.25684 0-3.92187 2.88378-13.01855 16.08593-20.5459 7.18262-4.09668 23.22754-5.97851 42.33692-5.97851 22.5205 0 36.30859 2.19531 44.74414 7.99316 13.21386 9.07813 13.25976 18.6836 13.25976 22.92481 0 17.39062-16.99804 16.97754-16.99804 27.8457 0 5.52441 0.13574 22.05078 0.13574 22.05078 0 2.81055 0.54394 2.81348 2.17285 1.80274 1.62793-1.00879 11.49316-6.49414 20.4541-6.49414 13.55762 0 24.05371 7.2832 31.39453 16.24609 0.87891 1.07422 2.72559 1.47461 2.72559-0.28223 0-1.75488-0.18067-22.00195 4.52734-40.11816 4.70508-18.11719 25.98633-33.85254 47.9668-33.85254 41.94922 0 79.43652 34.60059 63.41406 62.35059z" fill="#c2302e"/><g fill="#ffe600"><path id="path84" d="m506.2725 310.4023s46.22168-1.64843 46.22168 16.80762c0 12.32422-15.90332 14.44922-18.34961 26.42188-1.66211 8.12011-4.34765 50.20263 4.57617 50.20263 8.92285 0 10.31641-16.23486 31.36133-16.23486 18.05371 0 25.59863 15.7832 25.59863 32.01904 0 16.23487-12.25586 31.31641-29.24902 31.31641-19.70019 0-28.24609-22.3501-31.66113-20.43457-2.70215 1.51269-4.28516 11.90527-11.75391 16.25146-4.97949 2.89649-17.43652-1.36084-31.21191-6.05078-15.42383-5.25049-31.45117-12.65088-31.45117-22.70166 0-3.74902 3.50195-5.97803 7.24707-7.93506 3.14941-1.64697 5.32714-6.21777 5.53125-9.63525 0.708-11.75342 2.00097-37.0542 0.25-47.1792-3.11231-17.96289-12.36036-13.90625-12.36036-27.66113 0-17.01758 45.25098-15.18653 45.25098-15.18653z"/><path id="path86" d="m127.4336 390.9707c-5.54394 3.30957-11.20117 0.60743-19.34521 3.66895-3.78027 1.41894-7.46924 1.81055-7.46924 4.87598 0 3.66015 3.18799 3.67578 7.26318 4.88281 8.78028 2.59912 13.50733 0.26025 19.07618 3.52441 5.55713 3.25684 7.47119 10.41699 4.27148 15.98926-3.19287 5.57324-10.29297 7.45117-15.84912 4.19336-5.56885-3.26416-5.66504-8.32276-11.91162-14.63623-2.96973-3.0044-5.02149-3.61621-7.646-2.74658-2.62304 0.87011-1.6333 4.19824-0.95752 7.89843 1.86719 10.17188 5.95899 10.9043 5.95899 17.41211 0 6.49463-5.16602 11.7583-11.53662 11.7583-6.37403 0-11.542-5.26367-11.542-11.7583 0-6.50781 4.07373-7.81347 6.50196-17.41211 0.42822-1.68896 2.38232-5.98291-0.80274-8.10644-3.18701-2.125-6.07519 2.38379-7.6626 3.77441-7.38085 6.45166-6.81982 10.16699-12.36425 13.47705-5.52979 3.3003-12.64209 1.48243-15.88184-4.06689-3.24121-5.5459-1.38525-12.72022 4.14795-16.02344 5.54053-3.30762 8.57959 0.0967 18.59619-2.03027 3.24121-0.68701 7.12451-1.16699 7.12451-5.07862 0-3.6372-2.13134-4.56787-6.01757-5.77001-8.15381-2.51758-14.20411-0.25782-19.77344-3.52442-5.55762-3.25586-7.47022-10.41504-4.27442-15.9873 3.19825-5.57325 10.29444-7.45215 15.85303-4.19434 5.56934 3.26465 5.88672 7.97559 11.85059 14.00586 3.8706 3.91016 5.93896 6.52246 8.42285 4.71387 2.94433-2.14356 1.72265-5.57227 0.88574-9.66602-1.8623-9.09082-6.60596-12.12012-6.60596-18.6289 0-6.49219 5.16602-11.75586 11.542-11.75586 6.3706 0 11.53662 5.26367 11.53662 11.75586 0 6.50878-5.01905 9.82714-6.88282 18.6289-0.87744 4.15137-2.67187 9.40332 0.43409 10.88477 3.59765 1.71484 6.44677-1.55957 9.51953-4.667 6.72119-6.79394 6.26025-12.16992 11.80176-15.48046 5.53125-3.30176 12.64404-1.48145 15.88134 4.06543 3.24366 5.54882 1.38575 12.72168-4.14502 16.02343z"/><path id="path88" d="m260.4243 449.6533c-16.06787 1.4668-34.46875-7.66602-39.80957-13.06299-2.20459-2.22803-2.6958 3.36621-2.6958 9.69043 0 12.10694-0.0493 32.90479-1.3545 43.49658-0.43799 3.58204-1.19433 7.70215-5.16308 8.36768-25.3877 4.25439-77.51758-14.27295-74.39649-30.8208 2.33057-12.34375 20.49854-5.09082 20.00244-17.6709 0 0 1.3335-30.92432 1.3335-55.80957 0-47.00488-4.16211-67.04199-1.6123-69.61914 5.79834-5.86231 16.78466 4.6582 22.09033-0.43262 28.3623-27.2207 112.1382-26.29199 125.082 51.77442 8.30908 50.11279-18.52734 71.81152-43.47656 74.08691m-13.1816-79.416c0.35156-19.46582-7.82764-39.66015-19.18604-39.66015-15.84033 0-16.23193 77.86523-0.63037 77.86523 10.58838 0 19.46582-18.73828 19.81641-38.20508z"/><path id="path90" d="m387.6816 394.0254 50.31641 1.68262c9.43457 0 13.70117 0.33008 10.56933 19.32568-3.64648 22.10303-22.11914 55.67774-58.71289 55.67774-44.67969 0-69.49804-37.2417-69.49804-79.39893 0-29.8584 21.37695-65.9541 69.49804-65.9541 44.87305 0 65.10645 39.6875 54.10645 48.44824-13.7959 10.98535-13.3584-14.51465-47.67188-8.0791-15.45801 2.89844-29.66797 28.29785-8.60742 28.29785m0.20801 50.93457c10.8623 0 17.25586-24.9668 11.61133-24.9668l-22.67578-0.22851c-7.22657 0 0.20312 25.19531 11.06445 25.19531z"/><path id="path92" d="m701.3359 518.0962h6.50879v-1.6123h-2.18946v-6.88037h-2.13964v6.88037h-2.17969v1.6123z"/><path id="path94" d="m716.2861 518.0962-1.49511-5.17041-1.48731 5.17041h-3.88867v-8.49267h1.94043v5.89843h0.46973l1.87109-5.89843h2.17969l1.86816 5.89843h0.46875v-5.89843h1.94629v8.49267h-3.87305z"/><path id="path96" d="m679.8682 440.9629c4.04102 0 21.65039-0.11279 21.65039-0.11279 4.79883 0 5.00293 3.02197 5.65333 4.96679 0.7373 2.20313 0.3955 17.6001 0.3955 18.9751 0 1.37647-0.30566 5.41846-5.01074 5.84522-4.70801 0.42724-19.1416-0.72266-23.32422 2.45703-8.47168 6.44385 3.25781 32.76123-15.00097 32.76123-7.89454 0-21.09864-10.47754-35.74805-20.58887-19.3252-13.33691-39.23926-28.50146-33.86328-36.64453 10.32226-15.6543 24.33398-0.24853 22.7959-12.25781-1.29688-10.14209-2.40625-70.28906 1.71484-80.38672 13.13086-30.57227 51.86523-32.1709 74.44141-16.53516 14.52441 10.05957 21.30566 25.74512 15.07519 32.625-4.4209 4.88575-9.48828 1.3916-15.62793-1.06836-5.09765-2.04394-14.8916-0.22265-17.03906 14.66895-1.09277 7.6084-0.40625 40.20361-0.0732 48.43017 0.16015 4.07325 1.33691 6.86475 3.96093 6.86475z"/><path id="path98" d="m44.52051 318.0508c-12.16797 12.29981-34.9668-26.18066-60.29492-16.08594-4.30664 1.7168-10.31397 7.88477-11.69629 11.9834-0.60938 1.80567-0.32032 4.38086 1.28369 5.3877 29.13428 18.25879 50.06543 54.94922 50.06543 94.20947 0 60.17139-53.04395 113.4575-112.8628 113.4575-61.729 0-114.1909-53.24023-114.1909-115.9028 0-9.02002 1.06982-17.76416 3.07666-26.12744 1.3486-6.7227 3.0986-11.4727 5.5385-16.919 17.12402-40.8291 57.84766-69.06641 104.4893-69.06641 6.22021 0 12.31641 0.52442 18.25586 1.52149 3.68848 0.82324 5.33203-0.29395 6.36621-3.06445 6.09375-16.32813 15.53857-33.88672 41.71094-43.23731 48.60449-17.36523 82.85058 49.0918 68.2583 63.84375m-107.5947 46.34668c-0.41553-0.6543-1.08447-1.53516-2.57764-0.0264-6.0288 6.09375-7.90673 10.25782-17.7871 13.22461-8.45313 2.54004-16.93506-2.21093-15.71045-9.76074 0.62255-3.8418 4.08837-3.06543 8.55224-6.10742 10.65723-7.84863 11.04492-17.49805 9.34815-19.21191-1.48291-1.50098-4.56494-1.04297-7.27246-0.54883-18.82764 3.43066-34.64112 32.64062-34.64112 71.58154 0 38.93652 15.51074 69.50049 34.64112 69.50049 19.13134 0 34.64209-30.56397 34.64209-69.50049 0-19.77295-5.76416-43.7583-9.19483-49.15088z"/></g><g fill="#001191"><path id="path516" d="m326.999 216.6572v31.5h-9.4707v-31.5h9.4707z"/><path id="path518" d="m338.7119 216.6572v25.61816h-8.97168v-25.61816h8.97168z"/><path id="path520" d="m338.7119 244.0703v3.88672h-8.97168v-3.88672h8.97168z"/><path id="path522" d="m271.0781 243.4424c-7.63038 0-13.81592-5.99511-13.81592-13.3916 0-7.39648 6.18554-13.39355 13.81592-13.39355 7.62988 0 13.81494 5.99707 13.81494 13.39355 0 7.39649-6.18506 13.3916-13.81494 13.3916m0-19.3125c-2.7251 0-4.93409 2.65039-4.93409 5.9209 0 3.26856 2.20899 5.91992 4.93409 5.91992 2.72558 0 4.93359-2.65136 4.93359-5.91992 0-3.27051-2.20801-5.9209-4.93359-5.9209z"/><path id="path524" d="m380.4678 243.4424c-0.86523 0-1.70996-0.0811-2.53222-0.22851v5.14355h-9.66797v-31.70019h9.66797v0.0215c0.90136-0.0127 1.7998-0.0215 2.53222-0.0215 7.63086 0 13.81543 5.99707 13.81543 13.39355 0 7.39649-6.18457 13.3916-13.81543 13.3916m0-19.3125c-0.80566 0-1.72363 0.0859-2.53222 0.36914v11.00586c0.78222 0.34473 1.6914 0.46582 2.53222 0.46582 2.72559 0 4.93457-2.65136 4.93457-5.91992 0-3.27051-2.20898-5.9209-4.93457-5.9209z"/><path id="path526" d="m353.7129 223.4033c-3.08984 0-3.9873 1.33984-4.43066 3.83203h3.59961 5.66113 8.05566c0.14649 0.77442 0.22461 1.57324 0.22461 2.3916 0 7.16211-5.86914 12.96875-13.11035 12.96875s-13.11035-5.80664-13.11035-12.96875 5.86914-12.96972 13.11035-12.96972c0.14453 0 12.66016 0.0117 12.66016 0.0117v6.73437h-12.66016m0 12.56738c2.15332 0 4.00098-1.58593 4.79688-3.85058h-9.59375c0.61132 2.49121 2.64355 3.85058 4.79687 3.85058z"/><path id="path528" d="m295.4004 229.2676v6.52832h4.68506v6.67871h-4.68506v5.48242h-9.47021v-22.24512s-1.04541-9.05468 5.58252-9.05468h8.84716v7.07812c-1.96923 0-4.95947-1.04687-4.95947 5.53223z"/><path id="path530" d="m311.2852 229.2676v6.52832h4.6875v6.67871h-4.6875v5.48242h-9.46827v-22.24512s-1.04687-9.05468 5.5835-9.05468h8.8457v7.07812c-1.96972 0-4.96093-1.04687-4.96093 5.53223z"/><path id="path532" d="m235.4419 238.4219v1.59765h2.77442v6.0127h17.01318v8.04394h-21.1333c-9.23389-0.74121-16.50732-8.85644-16.50732-18.64355 0-10.27735 8.01513-18.42481 17.90283-18.42481h19.73779v21.41407h-19.7876z"/></g><g><path id="path534" d="m245.9087 245.1514-0.37402 6.60449-6.17969-5.20898-6.08105 7.00292-1.12061-8.72265-9.19629 2.14355 3.78809-9.76757-5.90625-3.19043 7.12744-4.11231-3.18994-8.62109 9.79345 4.55859 1.66993-6.47851 5.55664 6.80371 9.32129-4.70996-4.31104 13.28222 7.47607 10.74121-8.37402-0.32519z"/><path id="path536" d="m234.022 251.3076-0.89795-8.04883-8.59716 2.31738 4.0625-8.77246-5.50733-2.86621 6.62842-3.53906-3.46387-7.44922 9.17041 4.55859 1.32129-5.80566 4.68457 5.93164 7.65088-3.88867-3.76221 11.23926 6.92725 9.76953-7.22705-1.44532-0.49854 6.25391-5.25781-4.80859-5.2334 6.55371z" fill="#001191"/><path id="path538" d="m250.477 243.707-6.47949-1.46289-0.23145 5.31641-4.71923-4.48535-4.28565 5.98046-0.69824-7.11035-7.90772 2.35938 3.8545-7.94043-4.85108-2.39356 6.01367-3.15625-2.92431-5.78125 7.94189 4.15235 1.02881-5.18262 3.82129 5.01758 6.71338-3.75488-3.72217 9.93554 6.4458 8.50586z"/><path id="path540" d="m255.2295 231.9443v6.67871h-17.84424v-6.67871h17.84424z" fill="#001191"/></g><g fill="#001fa5"><path id="path542" d="m252.0205 195.9004c-1.1211-1.08203-2.4668-1.62207-4.03613-1.62207-1.62208 0-2.98926 0.55371-4.09864 1.66113-1.11133 1.1084-1.66699 2.47071-1.66699 4.08887 0 1.67969 0.59961 3.07617 1.7998 4.18945 1.12598 1.04004 2.44825 1.56055 3.96583 1.56055 1.59082 0 2.94921-0.56152 4.07519-1.68457 1.12695-1.125 1.69043-2.47949 1.69043-4.06543 0-1.63379-0.57715-3.00879-1.72949-4.12793m-7.40039 7.41992c-0.91407-0.93066-1.37012-2.03515-1.37012-3.31152 0-1.32324 0.46387-2.44824 1.39355-3.37402 0.92383-0.92579 2.04004-1.3877 3.34864-1.3877 1.30273 0 2.41699 0.46582 3.34082 1.39551 0.92383 0.93555 1.38574 2.05859 1.38574 3.36621 0 1.27148-0.45996 2.37598-1.37793 3.31152-0.92969 0.95117-2.0459 1.42676-3.34863 1.42676-1.31934 0-2.44239-0.47559-3.37207-1.42676m5.22656-6.15039c-0.55078-0.36523-1.12109-0.54785-1.70898-0.54785-0.87696 0-1.63477 0.31152-2.27344 0.93652-0.63867 0.62403-0.95801 1.44336-0.95801 2.45801 0 0.94629 0.27441 1.75293 0.82422 2.41895 0.5498 0.66601 1.30371 0.99902 2.26172 0.99902 0.60937 0 1.13769-0.12793 1.58594-0.38184 0.72949-0.41406 1.18261-1.13867 1.35937-2.17285l-1.46875 0.0234c-0.0879 0.47461-0.27441 0.79395-0.55957 0.95801-0.23828 0.15234-0.5 0.22949-0.78516 0.22949-0.42968 0-0.78125-0.17578-1.05664-0.52734-0.27343-0.35157-0.41113-0.88086-0.41113-1.58887 0-0.70313 0.15137-1.21387 0.4541-1.53125 0.30274-0.31836 0.66699-0.47754 1.0918-0.47754 0.38867 0 0.68262 0.10645 0.88183 0.32031 0.19922 0.21387 0.32715 0.48145 0.38477 0.80469h1.4375c-0.15723-0.91504-0.51074-1.55566-1.05957-1.9209z"/><path id="path544" d="m258.5088 199.919v1.28125c0.5918 0.0264 1.00781 0.0654 1.24414 0.11816 0.37891 0.082 0.68555 0.24805 0.92383 0.49609 0.16211 0.16993 0.28515 0.39551 0.36816 0.67871 0.0478 0.16993 0.0732 0.2959 0.0732 0.37891h1.57813v-9.59375h-1.9375v6.64063h-2.25z"/><path id="path546" d="m266.3896 201.9951c0.59375 0.63672 1.36523 0.95508 2.31445 0.95508 1.45996 0 2.46094-0.64649 3.00391-1.93848 0.30859-0.73242 0.46387-1.69727 0.46387-2.89258 0-1.16016-0.14844-2.12891-0.44434-2.90527-0.56738-1.47754-1.60742-2.2168-3.12109-2.2168-0.72168 0-1.37012 0.21191-1.94532 0.63379-0.57617 0.42383-0.90527 1.04004-0.98925 1.85059h1.875c0.0439-0.28223 0.16406-0.51172 0.36035-0.68848 0.19531-0.17676 0.45507-0.26465 0.77929-0.26465 0.62598 0 1.06641 0.34668 1.31934 1.04199 0.13769 0.38282 0.22363 0.94141 0.25977 1.67578-0.17188-0.21582-0.3545-0.38086-0.54883-0.49414-0.35254-0.21191-0.78614-0.31738-1.30176-0.31738-0.7627 0-1.43945 0.2627-2.0293 0.79004-0.59082 0.52539-0.88574 1.28516-0.88574 2.27637 0 1.02636 0.2959 1.85742 0.88965 2.49414m3.17773-3.80469c0.4336 0.27246 0.65137 0.74512 0.65137 1.41895 0 0.54101-0.12793 0.9707-0.38379 1.2871-0.25488 0.31739-0.60547 0.47559-1.04883 0.47559-0.32422 0-0.60254-0.0908-0.83398-0.27051-0.36328-0.28222-0.5459-0.75976-0.5459-1.43261 0-0.56739 0.11621-0.99317 0.34863-1.27735s0.59082-0.42578 1.07422-0.42578c0.26172 0 0.50781 0.0752 0.73828 0.22461z"/><path id="path548" d="m273.3564 197.3984c0.24218 0.43652 0.59765 0.76465 1.0664 0.98535-0.46582 0.30859-0.76953 0.64355-0.90918 1.00293-0.13965 0.35937-0.20996 0.69629-0.20996 1.00976 0 0.69727 0.26367 1.292 0.79102 1.78418 0.52734 0.49219 1.27148 0.73829 2.23242 0.73829s1.70508-0.2461 2.23242-0.73926c0.52734-0.49219 0.79102-1.08789 0.79102-1.78516 0-0.31445-0.0693-0.65039-0.20899-1.01074-0.13867-0.36035-0.4414-0.67285-0.90625-0.9375 0.47363-0.26465 0.83008-0.61426 1.06934-1.05078 0.23926-0.43555 0.3584-0.92285 0.3584-1.45996 0-0.80664-0.29883-1.49219-0.89746-2.0586-0.59864-0.56543-1.43458-0.84863-2.50782-0.84863s-1.88574 0.2832-2.43847 0.84961c-0.55176 0.56641-0.82813 1.25293-0.82813 2.05957 0 0.53711 0.12109 1.02441 0.36524 1.46094m1.95507-2.44629c0.24512-0.26172 0.58399-0.39258 1.01563-0.39258 0.43262 0 0.77148 0.13086 1.01562 0.39258 0.24512 0.26172 0.36719 0.62988 0.36719 1.10449 0 0.49219-0.125 0.86524-0.37305 1.12012-0.25 0.25488-0.58593 0.38281-1.00976 0.38281s-0.75977-0.12793-1.00879-0.38281-0.37402-0.62793-0.37402-1.12012c0-0.47461 0.12304-0.84277 0.36718-1.10449m0.12696 4.375c0.21484-0.21973 0.51172-0.33008 0.89257-0.33008 0.38477 0 0.68165 0.11035 0.89258 0.33008 0.20899 0.21973 0.31446 0.5039 0.31446 0.85254 0 0.37793-0.10547 0.67383-0.31446 0.88769-0.21093 0.21387-0.50781 0.32032-0.89258 0.32032-0.38085 0-0.67773-0.10645-0.89257-0.32032-0.21485-0.21386-0.32227-0.50976-0.32227-0.88769 0-0.34864 0.10742-0.63281 0.32227-0.85254z"/><path id="path550" d="m282.0361 195.1602c0.26563 0.63867 0.89844 1.31445 1.90039 2.02929 0.86817 0.6211 1.43164 1.06739 1.68848 1.33692 0.39551 0.41992 0.59277 0.87988 0.59277 1.37988 0 0.40625-0.11328 0.74414-0.33984 1.01465-0.22656 0.26953-0.55078 0.4043-0.97168 0.4043-0.57715 0-0.96973-0.21485-1.17871-0.64454-0.12012-0.24902-0.19141-0.64355-0.21289-1.18359h-1.8125c0.0312 0.81738 0.17871 1.47852 0.44336 1.9834 0.5039 0.95898 1.39844 1.43848 2.68359 1.43848 1.01563 0 1.82422-0.28223 2.42481-0.84473 0.60058-0.5625 0.90136-1.30859 0.90136-2.23535 0-0.71094-0.21289-1.34278-0.63867-1.89453-0.28027-0.36719-0.74023-0.77442-1.3789-1.22461l-0.75879-0.53614c-0.47559-0.33398-0.79981-0.57714-0.97559-0.72656-0.17578-0.15039-0.32324-0.32422-0.44336-0.52246h4.21094v-1.65625h-6.57813c0.0176 0.68652 0.16504 1.31445 0.44336 1.88184z"/><path id="path552" d="m299.2158 202.832c0.68359-0.22558 1.23731-0.63867 1.66113-1.23926 0.33887-0.48535 0.57129-1.01074 0.69434-1.57714 0.12305-0.56446 0.18555-1.10352 0.18555-1.61622 0-1.29785-0.25977-2.39843-0.78125-3.29882-0.70508-1.21485-1.79493-1.82227-3.26758-1.82227h-4.20117v9.76563h4.20117c0.60351-0.009 1.10742-0.0791 1.50781-0.21192m-3.72461-1.47558v-6.39063h1.87305c0.95801 0 1.62695 0.47559 2.0039 1.42871 0.20704 0.52149 0.31055 1.14453 0.31055 1.86621 0 0.9961-0.15527 1.76172-0.46484 2.29492-0.31055 0.53418-0.92676 0.80079-1.84961 0.80079h-1.87305z"/><path id="path554" d="m303.1084 193.2783h2v1.98438h-2v-1.98438z"/><path id="path556" d="m317.3896 199.9814c-0.1543 0.66406-0.53223 1.12793-1.13379 1.3916-0.33594 0.14453-0.70898 0.21777-1.12012 0.21777-0.78711 0-1.43359-0.2959-1.93945-0.88769-0.50684-0.5918-0.75977-1.48145-0.75977-2.66993 0-1.19629 0.27442-2.04297 0.82227-2.54101 0.54785-0.4961 1.1709-0.74512 1.86914-0.74512 0.68555 0 1.24707 0.19727 1.68457 0.59082 0.4375 0.39453 0.70703 0.91113 0.80859 1.54981h-2.26269v1.625h4.0625v-5.23438h-1.34375l-0.20313 1.21875c-0.39257-0.46094-0.74609-0.78613-1.05957-0.97461-0.53808-0.3291-1.20019-0.49414-1.98632-0.49414-1.29297 0-2.35254 0.44727-3.17774 1.3418-0.86133 0.89843-1.29199 2.12793-1.29199 3.6875 0 1.57715 0.43457 2.84179 1.30371 3.79297 0.86914 0.95214 2.01758 1.42773 3.44727 1.42773 1.23925 0 2.23535-0.31445 2.9873-0.94336s1.18262-1.41308 1.29297-2.35351h-2z"/><path id="path558" d="m327.2383 194.1709c-0.6084-0.75098-1.5332-1.12695-2.77344-1.12695-1.24023 0-2.16504 0.37597-2.77441 1.12695-0.6084 0.75098-0.91309 1.65527-0.91309 2.71387 0 1.03906 0.30469 1.94043 0.91309 2.70312 0.60937 0.76172 1.53418 1.14356 2.77441 1.14356 1.24024 0 2.16504-0.38184 2.77344-1.14356 0.60938-0.76269 0.91406-1.66406 0.91406-2.70312 0-1.0586-0.30468-1.96289-0.91406-2.71387m-1.51465 1.02637c0.2959 0.39257 0.44434 0.95312 0.44434 1.67773 0 0.72559-0.14844 1.28418-0.44434 1.67578-0.2959 0.39063-0.71972 0.58692-1.27148 0.58692s-0.97656-0.19629-1.27442-0.58692c-0.29882-0.3916-0.44726-0.95019-0.44726-1.67578 0-0.72461 0.14844-1.28516 0.44726-1.67773 0.29786-0.39454 0.72266-0.59082 1.27442-0.59082s0.97558 0.19628 1.27148 0.59082z"/><path id="path560" d="m328.7607 199.0908v1.32813h1v2.03125h1.89063v-2.03125h1.17187v-1.32813h-1.17187v-3.80762c0-0.29492 0.0371-0.47949 0.1123-0.55175 0.0752-0.0733 0.30469-0.10938 0.68848-0.10938 0.0576 0 0.11816 0.003 0.18164 0.008 0.0645 0.005 0.12695 0.0127 0.18945 0.0234v-1.40625l-0.90136-0.0625c-0.89844-0.0303-1.51172 0.12402-1.84083 0.46387-0.21386 0.21582-0.32031 0.54883-0.32031 1v4.44238h-1z"/><path id="path562" d="m333.2744 199.0908v1.32813h1v2.03125h1.89063v-2.03125h1.17187v-1.32813h-1.17187v-3.80762c0-0.29492 0.0371-0.47949 0.1123-0.55175 0.0752-0.0733 0.30469-0.10938 0.68848-0.10938 0.0576 0 0.11816 0.003 0.18262 0.008 0.0635 0.005 0.12597 0.0127 0.18847 0.0234v-1.40625l-0.90039-0.0625c-0.89941-0.0303-1.51269 0.12402-1.84179 0.46387-0.21387 0.21582-0.32032 0.54883-0.32032 1v4.44238h-1z"/><path id="path564" d="m340.4443 193.2783h-1.89063v9.75h1.89063v-9.75z"/><path id="path566" d="m344.2256 203.0908h-1.90625v-1.73437h1.90625v1.73437m-1.90625-9.8125h1.90625v7.21875h-1.90625v-7.21875z"/><path id="path568" d="m350.7539 200.3477c0.50195-0.22461 0.91699-0.57911 1.24414-1.06348 0.29492-0.42676 0.48633-0.92188 0.57422-1.48535 0.0508-0.33008 0.0713-0.80664 0.0615-1.42676h-5.25098c0.0293-0.72559 0.28223-1.2334 0.75782-1.52441 0.29003-0.18164 0.63769-0.27246 1.04492-0.27246 0.43164 0 0.7832 0.11035 1.05273 0.33105 0.14746 0.11914 0.27735 0.28516 0.39063 0.49707h1.91015c-0.0508-0.42871-0.28418-0.86426-0.69824-1.30566-0.64551-0.70313-1.5498-1.05371-2.71094-1.05371-0.95898 0-1.80566 0.29589-2.53808 0.88671-0.7334 0.59082-1.09961 1.55176-1.09961 2.88379 0 1.24805 0.33008 2.20508 0.99219 2.8711 0.66113 0.66601 1.51953 0.99902 2.57519 0.99902 0.62695 0 1.19141-0.1123 1.69434-0.33691m-2.83301-1.62989c-0.26856-0.26953-0.4375-0.63476-0.50684-1.0957h3.28125c-0.0351 0.49121-0.2041 0.86426-0.50781 1.11816-0.30371 0.25489-0.67969 0.38184-1.12891 0.38184-0.48925 0-0.86816-0.13477-1.13769-0.4043z"/><path id="path570" d="m359.7539 199.6279c0.53808-0.68359 0.80761-1.56641 0.80761-2.64648 0-1.12012-0.26562-2.04883-0.79785-2.78614-0.53125-0.73633-1.27344-1.10449-2.22656-1.10449-0.59863 0-1.0791 0.12012-1.44238 0.3584-0.21778 0.1416-0.45215 0.38965-0.70508 0.74414v-0.91504h-1.85938v9.75h1.89063v-3.46875c0.23926 0.33398 0.5039 0.58887 0.79199 0.76465 0.34082 0.21875 0.77539 0.3291 1.30274 0.3291 0.95312 0 1.69921-0.3418 2.23828-1.02539m-1.58301-4.38574c0.27148 0.39258 0.40625 0.9082 0.40625 1.54785 0 0.51172-0.0664 0.93457-0.19922 1.27051-0.25391 0.63476-0.71973 0.95215-1.39941 0.95215-0.68946 0-1.16211-0.31153-1.41993-0.93262-0.13281-0.33106-0.20019-0.75879-0.20019-1.2832 0-0.61719 0.13769-1.12891 0.41308-1.53516 0.2754-0.40527 0.69532-0.6084 1.25977-0.6084 0.48926 0 0.86914 0.19629 1.13965 0.58887z"/><path id="path572" d="m365.9346 197.3623c0.29102 0.41895 0.7666 0.83301 1.42773 1.24317l0.20411 0.12598c-0.28028 0.31738-0.49707 0.6416-0.65039 0.97168-0.15332 0.33105-0.23047 0.6748-0.23047 1.03222 0 0.70996 0.24023 1.26465 0.7207 1.66309 0.47949 0.39844 1.10156 0.59863 1.86621 0.59863 0.69824 0 1.27442-0.2041 1.73047-0.6123 0.45508-0.40821 0.68262-0.93067 0.68262-1.56641 0-0.57422-0.13575-1.04004-0.40821-1.39746s-0.67285-0.68848-1.20019-0.99317l1.39648-1.69726c0.16016 0.22851 0.28418 0.47656 0.37207 0.74414 0.0869 0.26855 0.13282 0.55176 0.13672 0.85059h1.67188c-0.0312-0.5918-0.17383-1.19043-0.42774-1.79493-0.14062-0.33984-0.36816-0.71582-0.68359-1.12597l1.76758-2.12598h-2.28125l-0.68164 0.83301c-0.32911-0.30567-0.63575-0.53125-0.9209-0.67676-0.50684-0.26074-1.09082-0.39062-1.75391-0.39062-0.99609 0-1.77441 0.29101-2.33398 0.87304-0.56055 0.58203-0.84082 1.22754-0.84082 1.9375 0 0.58692 0.1455 1.08887 0.43652 1.50781m1.83789-2.33691c0.2666-0.26855 0.60742-0.40332 1.02344-0.40332 0.3125 0 0.60937 0.0713 0.88867 0.21289 0.2793 0.14258 0.50684 0.30078 0.68164 0.47559l-1.81348 2.21582c-0.47851-0.31348-0.79394-0.58887-0.94824-0.82715-0.15429-0.23828-0.23144-0.5-0.23144-0.78711 0-0.32227 0.13379-0.61719 0.39941-0.88672m0.83789 5.23047c0.0811-0.12891 0.25684-0.35742 0.52832-0.68555 0.27149 0.18555 0.46582 0.34375 0.58301 0.47266 0.22656 0.23926 0.33887 0.49805 0.33887 0.77832 0 0.2041-0.0674 0.38574-0.20313 0.5459-0.13574 0.15918-0.34082 0.23926-0.61719 0.23926-0.17187 0-0.33203-0.0469-0.48144-0.13965-0.22559-0.1377-0.33887-0.35547-0.33887-0.65235 0-0.17773 0.0635-0.36425 0.19043-0.55859z"/><path id="path574" d="m379.2803 202.0127c0.78321 0.80175 1.78125 1.20312 2.99121 1.20312 1.62012 0 2.80372-0.53906 3.55274-1.61621 0.41406-0.60449 0.63574-1.21191 0.66699-1.82129h-2.03125c-0.12988 0.46973-0.2959 0.8252-0.49902 1.06445-0.36231 0.42578-0.89942 0.63868-1.61133 0.63868-0.72559 0-1.29688-0.29883-1.71582-0.89551-0.41797-0.59766-0.62695-1.44239-0.62695-2.53516 0-1.09375 0.21972-1.91211 0.66015-2.45605 0.44141-0.54395 1.00098-0.81641 1.68067-0.81641 0.69629 0 1.22754 0.2334 1.59277 0.69922 0.20215 0.25098 0.37012 0.62695 0.50391 1.12891h2.03125c-0.17481-1.06348-0.62012-1.92872-1.33692-2.59473-0.71679-0.66602-1.63476-0.99902-2.7539-0.99902-1.38575 0-2.47461 0.44921-3.26758 1.34863-0.79297 0.9043-1.18848 2.14258-1.18848 3.7168 0 1.70117 0.4502 3.01269 1.35156 3.93457z"/><path id="path576" d="m394.0068 194.1709c-0.60938-0.75098-1.53418-1.12695-2.77442-1.12695-1.24023 0-2.16504 0.37597-2.77344 1.12695-0.60937 0.75098-0.91406 1.65527-0.91406 2.71387 0 1.03906 0.30469 1.94043 0.91406 2.70312 0.6084 0.76172 1.53321 1.14356 2.77344 1.14356 1.24024 0 2.16504-0.38184 2.77442-1.14356 0.60839-0.76269 0.91308-1.66406 0.91308-2.70312 0-1.0586-0.30469-1.96289-0.91308-2.71387m-1.51465 1.02637c0.2959 0.39257 0.44336 0.95312 0.44336 1.67773 0 0.72559-0.14746 1.28418-0.44336 1.67578-0.2959 0.39063-0.71973 0.58692-1.27149 0.58692-0.55273 0-0.97754-0.19629-1.27539-0.58692-0.29785-0.3916-0.44726-0.95019-0.44726-1.67578 0-0.72461 0.14941-1.28516 0.44726-1.67773 0.29785-0.39454 0.72266-0.59082 1.27539-0.59082 0.55176 0 0.97559 0.19628 1.27149 0.59082z"/><path id="path578" d="m396.2314 195.2627h2v-1.98438h-2v1.98438z"/><path id="path580" d="m269.6728 188.9893h2.31641l3.43945-9.76563h-2.20996l-0.64355 2.01563h-3.58008l-0.66309-2.01563h-2.13769l3.47851 9.76563m-0.12695-6.07813h2.49414l-1.22852 3.84571-1.26562-3.84571z"/><path id="path582" d="m278.4512 179.2236h-1.89062v9.75h1.89062v-9.75z"/><path id="path584" d="m282.2178 179.2236h-1.89062v9.75h1.89062v-9.75z"/><path id="path586" d="m293.2412 188.7383c0.35938-0.1543 0.66406-0.38183 0.91406-0.68164 0.20703-0.24707 0.3711-0.51953 0.49121-0.81934 0.12012-0.2998 0.18067-0.6416 0.18067-1.02539 0-0.46289-0.11524-0.91796-0.34766-1.36523s-0.61523-0.76367-1.14941-0.94824c0.44824-0.18067 0.76465-0.4375 0.95215-0.77051 0.18554-0.33301 0.27929-0.84375 0.27929-1.53027v-0.65821c0-0.44824 0.0176-0.75195 0.0527-0.91113 0.0527-0.25293 0.17578-0.43945 0.36914-0.55859v-0.2461h-2.23438c-0.0625 0.2168-0.10742 0.39258-0.13379 0.52539-0.0537 0.27442-0.083 0.55664-0.0869 0.84473l-0.0137 0.91113c-0.008 0.625-0.11524 1.04102-0.32227 1.25-0.208 0.20801-0.5957 0.3125-1.16601 0.3125h-1.9961v-3.84375h-2v9.76563h4.6709c0.66699-0.0137 1.18067-0.0967 1.54004-0.25098m-4.21094-1.43652v-2.625h2.20118c0.4375 0 0.76562 0.0527 0.98437 0.15918 0.38672 0.18554 0.58008 0.55176 0.58008 1.10058 0 0.5918-0.1875 0.98926-0.56055 1.19239-0.21094 0.11523-0.52637 0.17285-0.94726 0.17285h-2.25782z"/><path id="path588" d="m298.5537 187.3018h-1.90625v1.73437h1.90625v-1.73437m-1.90625-0.85938h1.90625v-7.21875h-1.90625v7.21875z"/><path id="path590" d="m303.9463 186.4648c0.45703-0.19043 0.82715-0.53808 1.1084-1.04589v1.02343h1.85937v-6.84765c0-0.93164-0.15722-1.63379-0.4707-2.10547-0.53906-0.8125-1.57227-1.21875-3.10059-1.21875-0.92285 0-1.67578 0.18164-2.25879 0.54492-0.583 0.36328-0.90527 0.90527-0.96777 1.62695h2.04688c0.0527-0.2207 0.13867-0.3789 0.25781-0.47656 0.20117-0.17187 0.54199-0.25781 1.02148-0.25781 0.67578 0 1.12793 0.22558 1.35645 0.67676 0.14941 0.28906 0.22461 0.77539 0.22461 1.45898v0.45996c-0.18067-0.30566-0.37403-0.53418-0.58106-0.68652-0.37304-0.28321-0.85937-0.42481-1.45703-0.42481-0.92383 0-1.66113 0.32617-2.21289 0.97852-0.55176 0.65234-0.82812 1.53613-0.82812 2.65039 0 1.07519 0.2666 1.97851 0.79882 2.70996 0.53125 0.73242 1.28516 1.09863 2.26075 1.09863 0.36035 0 0.6748-0.0557 0.94238-0.16504m0.62598-5.20507c0.30078 0.33691 0.45117 0.87304 0.45117 1.60839 0 0.69141-0.14356 1.21778-0.42871 1.57911-0.28516 0.36132-0.66797 0.54199-1.14746 0.54199-0.65332 0-1.1045-0.31446-1.35254-0.94336-0.13086-0.33399-0.19727-0.74707-0.19727-1.23731 0-0.42382 0.0703-0.80078 0.20996-1.13086 0.25293-0.61523 0.70606-0.92285 1.36035-0.92285 0.43555 0 0.80274 0.16797 1.1045 0.50489z"/><path id="path592" d="m313.8711 186.3975c0.36329-0.1543 0.66114-0.39062 0.89356-0.70801 0.19824-0.26953 0.31933-0.54687 0.36328-0.83203 0.0439-0.28515 0.0654-0.75 0.0654-1.39453v-4.23926h-1.92188v4.39746c0 0.38965-0.0654 0.70313-0.19726 0.94239-0.17188 0.33593-0.49707 0.5039-0.97559 0.5039-0.49609 0-0.87207-0.16699-1.1289-0.50097-0.25684-0.33399-0.38575-0.81055-0.38575-1.42969v-3.91309h-1.89062v9.71875h1.89062v-3.43359c0.27247 0.41797 0.5879 0.70898 0.94629 0.87402 0.3584 0.16407 0.73536 0.24707 1.13086 0.24707 0.44434 0 0.84766-0.0772 1.20996-0.23242z"/><path id="path594" d="m316.208 185.0361v1.32813h1v2.03125h1.89062v-2.03125h1.17188v-1.32813h-1.17188v-3.80761c0-0.2959 0.0371-0.4795 0.11231-0.55176 0.0752-0.0732 0.30469-0.10938 0.68847-0.10938 0.0576 0 0.11817 0.002 0.18164 0.008 0.0645 0.005 0.12696 0.0127 0.18946 0.0234v-1.40625l-0.90137-0.0625c-0.89844-0.0312-1.51172 0.12305-1.84082 0.46289-0.21387 0.2168-0.32031 0.54981-0.32031 1v4.44336h-1z"/><path id="path596" d="m322.9092 181.5361c0.04-0.33593 0.12695-0.57519 0.26074-0.71582 0.23633-0.25195 0.67383-0.37793 1.31153-0.37793 0.375 0 0.67285 0.0547 0.89355 0.16504 0.2207 0.11035 0.33105 0.27637 0.33105 0.49707 0 0.21192-0.0918 0.37305-0.27636 0.4834-0.1836 0.11035-0.84375 0.29981-1.97949 0.56836-0.81836 0.20215-1.39356 0.4541-1.72754 0.75781-0.33399 0.29785-0.50098 0.72852-0.50098 1.29102 0 0.66308 0.26172 1.2334 0.78418 1.70996 0.52344 0.47656 1.25977 0.71484 2.20898 0.71484 0.90039 0 1.63477-0.17871 2.20215-0.53711 0.56739-0.35742 0.89258-0.97558 0.97656-1.85351h-1.89062c-0.0264 0.24121-0.0947 0.43164-0.2041 0.57129-0.20703 0.25488-0.55762 0.38183-1.05371 0.38183-0.40821 0-0.69922-0.0635-0.87305-0.1914-0.17285-0.12696-0.25977-0.27539-0.25977-0.44629 0-0.21582 0.0918-0.3711 0.27637-0.46778 0.18457-0.10058 0.84082-0.27441 1.96778-0.5205 0.75195-0.17578 1.31445-0.44239 1.6875-0.79883 0.36816-0.36133 0.55273-0.8125 0.55273-1.35449 0-0.71289-0.2666-1.2959-0.79883-1.74707-0.53222-0.45118-1.35547-0.67676-2.46875-0.67676-1.13476 0-1.97363 0.23926-2.51465 0.71777-0.54101 0.47852-0.81152 1.08789-0.81152 1.8291h1.90625z"/><path id="path598" d="m337.1748 188.7383c0.35938-0.1543 0.66407-0.38183 0.91407-0.68164 0.20605-0.24707 0.37011-0.51953 0.49121-0.81934 0.12012-0.2998 0.18066-0.6416 0.18066-1.02539 0-0.46289-0.11621-0.91796-0.34863-1.36523-0.23145-0.44727-0.61523-0.76367-1.14941-0.94824 0.44824-0.18067 0.76562-0.4375 0.95214-0.77051 0.18653-0.33301 0.28028-0.84375 0.28028-1.53027v-0.65821c0-0.44824 0.0176-0.75195 0.0527-0.91113 0.0527-0.25293 0.17578-0.43945 0.36914-0.55859v-0.2461h-2.23437c-0.0625 0.2168-0.10742 0.39258-0.13379 0.52539-0.0537 0.27442-0.083 0.55664-0.0869 0.84473l-0.0137 0.91113c-0.009 0.625-0.11621 1.04102-0.32324 1.25-0.20703 0.20801-0.5957 0.3125-1.16504 0.3125h-1.99609v-3.84375h-2v9.76563h4.66992c0.66797-0.0137 1.18164-0.0967 1.54101-0.25098m-4.21093-1.43652v-2.625h2.20117c0.4375 0 0.76562 0.0527 0.98437 0.15918 0.38672 0.18554 0.58008 0.55176 0.58008 1.10058 0 0.5918-0.1875 0.98926-0.56152 1.19239-0.20996 0.11523-0.52539 0.17285-0.94629 0.17285h-2.25781z"/><path id="path600" d="m345.249 186.293c0.50196-0.22461 0.917-0.5791 1.24414-1.06348 0.29493-0.42676 0.48633-0.92187 0.57422-1.48535 0.0508-0.33105 0.0713-0.80664 0.0615-1.42676h-5.25098c0.0293-0.72558 0.28125-1.2334 0.75781-1.52539 0.28906-0.18066 0.6377-0.27148 1.04492-0.27148 0.43164 0 0.78223 0.11035 1.05274 0.33105 0.14746 0.11914 0.27734 0.28516 0.38965 0.49707h1.91113c-0.0508-0.42871-0.28418-0.86425-0.69922-1.30566-0.64551-0.70313-1.54883-1.05371-2.71094-1.05371-0.95898 0-1.80468 0.29492-2.53711 0.88672-0.73339 0.59082-1.09961 1.55175-1.09961 2.88379 0 1.24804 0.33008 2.20507 0.99219 2.87109 0.66114 0.66602 1.51953 0.99902 2.5752 0.99902 0.62695 0 1.1914-0.1123 1.69433-0.33691m-2.833-1.62988c-0.26856-0.26954-0.43848-0.63477-0.50684-1.09571h3.28125c-0.0352 0.49121-0.2041 0.86426-0.50781 1.11817-0.30371 0.25488-0.68067 0.38183-1.12989 0.38183-0.48828 0-0.86718-0.13476-1.13671-0.40429z"/><path id="path602" d="m349.541 181.5361c0.04-0.33593 0.12793-0.57519 0.26074-0.71582 0.23633-0.25195 0.67383-0.37793 1.3125-0.37793 0.37402 0 0.67187 0.0547 0.89258 0.16504 0.2207 0.11035 0.33105 0.27637 0.33105 0.49707 0 0.21192-0.0918 0.37305-0.27637 0.4834-0.18359 0.11035-0.84375 0.29981-1.97949 0.56836-0.81738 0.20215-1.39355 0.4541-1.72754 0.75781-0.33398 0.29785-0.50097 0.72852-0.50097 1.29102 0 0.66308 0.26171 1.2334 0.78515 1.70996 0.52246 0.47656 1.25879 0.71484 2.20801 0.71484 0.90039 0 1.63477-0.17871 2.20215-0.53711 0.56738-0.35742 0.89258-0.97558 0.97656-1.85351h-1.89062c-0.0264 0.24121-0.0947 0.43164-0.20411 0.57129-0.20605 0.25488-0.55761 0.38183-1.05371 0.38183-0.4082 0-0.69922-0.0635-0.87207-0.1914-0.17383-0.12696-0.26074-0.27539-0.26074-0.44629 0-0.21582 0.0928-0.3711 0.27637-0.46778 0.18457-0.10058 0.84082-0.27441 1.96875-0.5205 0.75097-0.17578 1.31347-0.44239 1.68652-0.79883 0.36817-0.36133 0.55274-0.8125 0.55274-1.35449 0-0.71289-0.26661-1.2959-0.79786-1.74707-0.5332-0.45118-1.35546-0.67676-2.46875-0.67676-1.13574 0-1.97461 0.23926-2.51562 0.71777-0.54102 0.47852-0.81152 1.08789-0.81152 1.8291h1.90625z"/><path id="path604" d="m360.3262 186.293c0.50196-0.22461 0.91699-0.5791 1.24414-1.06348 0.29492-0.42676 0.48633-0.92187 0.57422-1.48535 0.0508-0.33105 0.0713-0.80664 0.0615-1.42676h-5.25097c0.0293-0.72558 0.28222-1.2334 0.75781-1.52539 0.29004-0.18066 0.6377-0.27148 1.04492-0.27148 0.43164 0 0.78321 0.11035 1.05274 0.33105 0.14746 0.11914 0.27734 0.28516 0.39062 0.49707h1.91016c-0.0508-0.42871-0.28418-0.86425-0.69824-1.30566-0.64551-0.70313-1.54981-1.05371-2.71094-1.05371-0.95899 0-1.80567 0.29492-2.53809 0.88672-0.7334 0.59082-1.09961 1.55175-1.09961 2.88379 0 1.24804 0.33008 2.20507 0.99219 2.87109 0.66113 0.66602 1.51953 0.99902 2.5752 0.99902 0.62695 0 1.1914-0.1123 1.69433-0.33691m-2.83301-1.62988c-0.26855-0.26954-0.4375-0.63477-0.50683-1.09571h3.28125c-0.0352 0.49121-0.2041 0.86426-0.50781 1.11817-0.30372 0.25488-0.67969 0.38183-1.12891 0.38183-0.48926 0-0.86816-0.13476-1.1377-0.40429z"/><path id="path606" d="m367.1904 186.626c0.0244-0.003 0.0781-0.007 0.16211-0.0117v-1.90625c-0.11914 0.006-0.22559 0.01-0.31836 0.0127-0.0928 0.002-0.16797 0.003-0.22559 0.003-0.76171 0-1.27246-0.24804-1.5332-0.74511-0.14648-0.2793-0.21973-0.70899-0.21973-1.29004v-3.46485h-1.89062v7.21875h1.79687v-1.24218c0.292 0.48144 0.5459 0.80957 0.76172 0.98632 0.35352 0.29493 0.8125 0.44336 1.37793 0.44336 0.0352 0 0.0645-0.002 0.0889-0.004z"/><path id="path608" d="m372.8955 186.4424h2.02539l-2.60547-7.21875h-1.98828l-2.58985 7.21875h2.11817l1.50391-5.32519 1.53613 5.32519z"/><path id="path610" d="m380.6777 186.293c0.50293-0.22461 0.91797-0.5791 1.24512-1.06348 0.29492-0.42676 0.48633-0.92187 0.57324-1.48535 0.0508-0.33105 0.0713-0.80664 0.0625-1.42676h-5.25195c0.0293-0.72558 0.28223-1.2334 0.75879-1.52539 0.28906-0.18066 0.6377-0.27148 1.04492-0.27148 0.43164 0 0.78223 0.11035 1.05274 0.33105 0.14648 0.11914 0.27734 0.28516 0.38964 0.49707h1.91016c-0.0508-0.42871-0.2832-0.86425-0.69824-1.30566-0.64551-0.70313-1.54883-1.05371-2.71094-1.05371-0.95898 0-1.80469 0.29492-2.53808 0.88672-0.73243 0.59082-1.09961 1.55175-1.09961 2.88379 0 1.24804 0.33105 2.20507 0.99218 2.87109 0.66211 0.66602 1.52051 0.99902 2.57618 0.99902 0.62695 0 1.1914-0.1123 1.69335-0.33691m-2.83203-1.62988c-0.26953-0.26954-0.43847-0.63477-0.50781-1.09571h3.28125c-0.0342 0.49121-0.20312 0.86426-0.50684 1.11817-0.30371 0.25488-0.68066 0.38183-1.12988 0.38183-0.48828 0-0.86816-0.13476-1.13672-0.40429z"/><path id="path612" d="m387.3633 186.3428c0.33887-0.19043 0.61426-0.45507 0.82617-0.79394v3.4248h1.90625v-9.75h-1.82812v0.97364c-0.26856-0.42286-0.5752-0.7295-0.91895-0.9209-0.34375-0.19141-0.7705-0.28711-1.28125-0.28711-0.84179 0-1.5498 0.34179-2.125 1.02637-0.57519 0.68457-0.8623 1.5625-0.8623 2.63476 0 1.23535 0.2832 2.20801 0.84961 2.91602 0.56543 0.70898 1.32324 1.06347 2.27051 1.06347 0.43554 0 0.82324-0.0957 1.16308-0.28711m0.45899-5.18652c0.27636 0.40234 0.41406 0.92383 0.41406 1.56348 0 0.8955-0.21973 1.53515-0.65918 1.91992-0.27344 0.2334-0.58887 0.34961-0.94922 0.34961-0.54883 0-0.95215-0.21192-1.20898-0.63477-0.25782-0.42285-0.38575-0.94726-0.38575-1.57422 0-0.67578 0.12989-1.21582 0.3916-1.62109 0.26075-0.40527 0.65625-0.60742 1.1875-0.60742 0.53028 0 0.9336 0.20117 1.20997 0.60449z"/><path id="path614" d="m410.4219 224.666v-1.17383h-2.87696v-5.49219h-2.02148v5.49219h-2.87696v1.17383h7.7754z"/><path id="path616" d="m417.9209 224.666h2.86133v-6.66602h-1.83985v4.50879c0 0.12891 0.002 0.31152 0.006 0.54492s0.006 0.41406 0.006 0.54004l-1.8255-5.5938h-1.95801l-1.81348 5.59375c0-0.12598 0.002-0.30664 0.006-0.54004s0.007-0.41601 0.007-0.54492v-4.50879h-1.84082v6.66602h2.89355l1.75684-5.24122 1.74121 5.24122z"/></g></g></svg>
